<svg xmlns="http://www.w3.org/2000/svg" version="1.1" xmlns:xlink="http://www.w3.org/1999/xlink" xmlns:svgjs="http://svgjs.dev/svgjs" width="100%" height="100%" viewBox="0 0 1000 600"><rect width="1000" height="600" x="0" y="0" fill="#66bfbf"/><g><rect width="333.3333333333333" height="333.3333333333333" y="286.787349893704" fill="#1d1b1b" transform="matrix(0.47247335185699557,0,0,0.4724733518569955,0,85.75503177669945)" x="264.5650634765625"/><path d="M329.1491501336823 528.4540208945234L328.1858473813887 528.4540208945234L328.1858473813887 383.29805759177117L338.4519024272603 378.45402089452347L399.80052628047133 378.45402089452347L399.80052628047133 379.4448465825969L391.95648958322363 396.068699793606L347.5344712345998 396.068699793606L347.5344712345998 442.720075940395L399.80052628047133 442.720075940395L399.80052628047133 443.68337869268856L391.95648958322363 460.33475483947757L347.5344712345998 460.33475483947757L347.5344712345998 519.7292502523217L329.1491501336823 528.4540208945234ZM437.5344712345997 528.4540208945234L436.5711684823062 528.4540208945234L436.5711684823062 412.33475483947757Q436.5711684823062 378.45402089452347 470.42437949148047 378.45402089452347L470.42437949148047 378.45402089452347L500.42437949148047 378.45402089452347Q534.2775905006547 378.45402089452347 534.2775905006547 412.33475483947757L534.2775905006547 412.33475483947757L534.2775905006547 519.7292502523217L515.8922693997374 528.4540208945234L514.9289666474438 528.4540208945234L514.9289666474438 460.33475483947757L455.9197923355172 460.33475483947757L455.9197923355172 519.7292502523217L437.5344712345997 528.4540208945234ZM455.9197923355172 412.33475483947757L455.9197923355172 442.720075940395L514.9289666474438 442.720075940395L514.9289666474438 412.33475483947757Q514.9289666474438 395.8760392431473 500.42437949148047 395.8760392431473L500.42437949148047 395.8760392431473L470.42437949148047 395.8760392431473Q455.9197923355172 395.8760392431473 455.9197923355172 412.33475483947757L455.9197923355172 412.33475483947757Z " fill="#66bfbf" transform="matrix(0.47247335185699557,0,0,0.4724733518569955,0,85.75503177669945)"/><path d="M682.1709000214987 528.4540170693083L681.2317229451672 528.4540170693083L681.2317229451672 386.93344848153095L691.2406672157856 382.21072946912125L751.0528301627244 382.21072946912125L751.0528301627244 383.17674017620504L743.405245398311 399.3842531506111L700.0957653640537 399.3842531506111L700.0957653640537 444.8672572758069L751.0528301627244 444.8672572758069L751.0528301627244 445.80643435213835L743.405245398311 462.0407809572967L700.0957653640537 462.0407809572967L700.0957653640537 519.9477561208203L682.1709000214987 528.4540170693083ZM801.0438842543113 507.68478686700644L801.0438842543113 507.68478686700644L820.8471037495293 507.68478686700644Q830.2925417743487 507.68478686700644 830.2925417743487 496.3609946895241L830.2925417743487 496.3609946895241L830.2925417743487 483.4540182976544Q830.2925417743487 472.130226120172 820.8471037495293 472.130226120172L820.8471037495293 472.130226120172L801.0438842543113 472.130226120172Q791.5984462294919 472.130226120172 791.5984462294919 483.4540182976544L791.5984462294919 483.4540182976544L791.5984462294919 496.3609946895241Q791.5984462294919 507.68478686700644 801.0438842543113 507.68478686700644ZM820.8471037495293 524.67047513323L801.0438842543113 524.67047513323Q772.7344038106054 524.67047513323 772.7344038106054 496.3609946895241L772.7344038106054 496.3609946895241L772.7344038106054 483.4540182976544Q772.7344038106054 455.14453785394846 801.0438842543113 455.14453785394846L801.0438842543113 455.14453785394846L820.8471037495293 455.14453785394846Q825.7576581772053 455.14453785394846 830.2925417743487 457.9620690829429L830.2925417743487 457.9620690829429L830.2925417743487 449.18747182693164Q830.2925417743487 437.8905132802016 820.8471037495293 437.8905132802016L820.8471037495293 437.8905132802016L787.0903962631007 437.8905132802016L787.0903962631007 436.9245025731178L794.6306465045049 420.90482501397804L820.8471037495293 420.90482501397804Q849.1565841932352 420.90482501397804 849.1565841932352 449.18747182693164L849.1565841932352 449.18747182693164L849.1565841932352 519.9477561208203L831.2317188506802 528.4540170693083L830.2925417743487 528.4540170693083L830.2925417743487 521.8529439042356Q826.6968352535367 524.67047513323 820.8471037495293 524.67047513323L820.8471037495293 524.67047513323ZM927.457118728528 524.67047513323L905.7487114498947 524.67047513323Q877.4660646369412 524.67047513323 877.4660646369412 496.3609946895241L877.4660646369412 496.3609946895241L877.4660646369412 449.18747182693164Q877.4660646369412 420.90482501397804 905.7487114498947 420.90482501397804L905.7487114498947 420.90482501397804L927.457118728528 420.90482501397804Q955.7665991722339 420.90482501397804 955.7665991722339 449.18747182693164L955.7665991722339 449.18747182693164L955.7665991722339 454.205360777617L896.598443363351 499.956701210336Q897.9401249009672 507.68478686700644 905.7487114498947 507.68478686700644L905.7487114498947 507.68478686700644L927.457118728528 507.68478686700644Q936.875723122595 507.68478686700644 936.875723122595 496.3609946895241L936.875723122595 496.3609946895241L936.875723122595 491.3699393695911L954.8005884651501 482.89051205185547L955.7665991722339 482.89051205185547L955.7665991722339 496.3609946895241Q955.7665991722339 524.67047513323 927.457118728528 524.67047513323L927.457118728528 524.67047513323ZM896.3301070558276 449.18747182693164L896.3301070558276 480.233982607375L936.795222230338 447.6042876125443Q936.2317159845392 437.8905132802016 927.457118728528 437.8905132802016L927.457118728528 437.8905132802016L905.7487114498947 437.8905132802016Q896.3301070558276 437.8905132802016 896.3301070558276 449.18747182693164L896.3301070558276 449.18747182693164ZM1034.0671337075266 524.67047513323L1012.3587264288934 524.67047513323Q984.0492459851876 524.67047513323 984.0492459851876 496.3609946895241L984.0492459851876 496.3609946895241L984.0492459851876 449.18747182693164Q984.0492459851876 420.90482501397804 1012.3587264288934 420.90482501397804L1012.3587264288934 420.90482501397804L1034.0671337075266 420.90482501397804Q1062.3497805204802 420.90482501397804 1062.3497805204802 449.18747182693164L1062.3497805204802 449.18747182693164L1062.3497805204802 454.205360777617L1003.2084583423496 499.956701210336Q1004.5233062492136 507.68478686700644 1012.3587264288934 507.68478686700644L1012.3587264288934 507.68478686700644L1034.0671337075266 507.68478686700644Q1043.4857381015938 507.68478686700644 1043.4857381015938 496.3609946895241L1043.4857381015938 496.3609946895241L1043.4857381015938 491.3699393695911L1061.4106034441488 482.89051205185547L1062.3497805204802 482.89051205185547L1062.3497805204802 496.3609946895241Q1062.3497805204802 524.67047513323 1034.0671337075266 524.67047513323L1034.0671337075266 524.67047513323ZM1002.9132884040739 449.18747182693164L1002.9132884040739 480.233982607375L1043.4052372093367 447.6042876125443Q1042.8417309635379 437.8905132802016 1034.0671337075266 437.8905132802016L1034.0671337075266 437.8905132802016L1012.3587264288934 437.8905132802016Q1002.9132884040739 437.8905132802016 1002.9132884040739 449.18747182693164L1002.9132884040739 449.18747182693164ZM1091.5984380405177 528.4540170693083L1090.6592609641862 528.4540170693083L1090.6592609641862 449.18747182693164Q1090.6592609641862 420.90482501397804 1118.9687414078921 420.90482501397804L1118.9687414078921 420.90482501397804L1140.650315055773 420.90482501397804Q1153.6646259706522 420.90482501397804 1159.5143574746596 427.8815690095833L1159.5143574746596 427.8815690095833Q1165.7397598091995 420.90482501397804 1178.378399893546 420.90482501397804L1178.378399893546 420.90482501397804L1200.0868071721793 420.90482501397804Q1228.3962876158853 420.90482501397804 1228.3962876158853 449.18747182693164L1228.3962876158853 449.18747182693164L1228.3962876158853 519.9477561208203L1210.47142227333 528.4540170693083L1209.5322451969987 528.4540170693083L1209.5322451969987 449.18747182693164Q1209.5322451969987 437.8905132802016 1200.0868071721793 437.8905132802016L1200.0868071721793 437.8905132802016L1178.378399893546 437.8905132802016Q1168.959795499479 437.8905132802016 1168.959795499479 449.18747182693164L1168.959795499479 449.18747182693164L1168.959795499479 519.9477561208203L1151.034930156924 528.4540170693083L1150.0957530805924 528.4540170693083L1150.0957530805924 449.18747182693164Q1150.0957530805924 437.8905132802016 1140.650315055773 437.8905132802016L1140.650315055773 437.8905132802016L1118.9687414078921 437.8905132802016Q1109.5233033830727 437.8905132802016 1109.5233033830727 449.18747182693164L1109.5233033830727 449.18747182693164L1109.5233033830727 519.9477561208203L1091.5984380405177 528.4540170693083ZM1262.34083051758 528.4540170693083L1261.4016534412485 528.4540170693083L1261.4016534412485 415.24292892523687Q1261.4016534412485 382.21072946912125 1294.4338528973642 382.21072946912125L1294.4338528973642 382.21072946912125L1323.6825104174015 382.21072946912125Q1356.6878762427648 382.21072946912125 1356.6878762427648 415.24292892523687L1356.6878762427648 415.24292892523687L1356.6878762427648 519.9477561208203L1338.7630109002098 528.4540170693083L1337.8238338238784 528.4540170693083L1337.8238338238784 462.0407809572967L1280.265695860135 462.0407809572967L1280.265695860135 519.9477561208203L1262.34083051758 528.4540170693083ZM1280.265695860135 415.24292892523687L1280.265695860135 444.8672572758069L1337.8238338238784 444.8672572758069L1337.8238338238784 415.24292892523687Q1337.8238338238784 399.1964177353448 1323.6825104174015 399.1964177353448L1323.6825104174015 399.1964177353448L1294.4338528973642 399.1964177353448Q1280.265695860135 399.1964177353448 1280.265695860135 415.24292892523687L1280.265695860135 415.24292892523687ZM1395.3551381568693 528.4540170693083L1394.415961080538 528.4540170693083L1394.415961080538 386.93344848153095L1412.340826423093 378.45402116379535L1413.2800034994243 378.45402116379535L1413.2800034994243 423.8296907659818Q1417.4392162660351 420.90482501397804 1422.7254415242437 420.90482501397804L1422.7254415242437 420.90482501397804L1444.433848802877 420.90482501397804Q1472.7164956158306 420.90482501397804 1472.7164956158306 449.18747182693164L1472.7164956158306 449.18747182693164L1472.7164956158306 519.9477561208203L1454.7916302732756 528.4540170693083L1453.852453196944 528.4540170693083L1453.852453196944 449.18747182693164Q1453.852453196944 437.8905132802016 1444.433848802877 437.8905132802016L1444.433848802877 437.8905132802016L1422.7254415242437 437.8905132802016Q1413.2800034994243 437.8905132802016 1413.2800034994243 449.18747182693164L1413.2800034994243 449.18747182693164L1413.2800034994243 519.9477561208203L1395.3551381568693 528.4540170693083ZM1501.965153135868 528.4540170693083L1501.0259760595368 528.4540170693083L1501.0259760595368 449.18747182693164Q1501.0259760595368 420.90482501397804 1529.3354565032423 420.90482501397804L1529.3354565032423 420.90482501397804L1551.0170301511234 420.90482501397804Q1564.0313410660024 420.90482501397804 1569.88107257001 427.8815690095833L1569.88107257001 427.8815690095833Q1576.10647490455 420.90482501397804 1588.7451149888964 420.90482501397804L1588.7451149888964 420.90482501397804L1610.4535222675295 420.90482501397804Q1638.7630027112357 420.90482501397804 1638.7630027112357 449.18747182693164L1638.7630027112357 449.18747182693164L1638.7630027112357 519.9477561208203L1620.8381373686807 528.4540170693083L1619.8989602923489 528.4540170693083L1619.8989602923489 449.18747182693164Q1619.8989602923489 437.8905132802016 1610.4535222675295 437.8905132802016L1610.4535222675295 437.8905132802016L1588.7451149888964 437.8905132802016Q1579.3265105948294 437.8905132802016 1579.3265105948294 449.18747182693164L1579.3265105948294 449.18747182693164L1579.3265105948294 519.9477561208203L1561.4016452522744 528.4540170693083L1560.4624681759428 528.4540170693083L1560.4624681759428 449.18747182693164Q1560.4624681759428 437.8905132802016 1551.0170301511234 437.8905132802016L1551.0170301511234 437.8905132802016L1529.3354565032423 437.8905132802016Q1519.8900184784231 437.8905132802016 1519.8900184784231 449.18747182693164L1519.8900184784231 449.18747182693164L1519.8900184784231 519.9477561208203L1501.965153135868 528.4540170693083ZM1717.0635372465285 524.67047513323L1695.3551299678952 524.67047513323Q1667.0456495241892 524.67047513323 1667.0456495241892 496.3609946895241L1667.0456495241892 496.3609946895241L1667.0456495241892 449.18747182693164Q1667.0456495241892 420.90482501397804 1695.3551299678952 420.90482501397804L1695.3551299678952 420.90482501397804L1717.0635372465285 420.90482501397804Q1745.3461840594819 420.90482501397804 1745.3461840594819 449.18747182693164L1745.3461840594819 449.18747182693164L1745.3461840594819 454.205360777617L1686.2048618813512 499.956701210336Q1687.5197097882156 507.68478686700644 1695.3551299678952 507.68478686700644L1695.3551299678952 507.68478686700644L1717.0635372465285 507.68478686700644Q1726.4821416405953 507.68478686700644 1726.4821416405953 496.3609946895241L1726.4821416405953 496.3609946895241L1726.4821416405953 491.3699393695911L1744.4070069831505 482.89051205185547L1745.3461840594819 482.89051205185547L1745.3461840594819 496.3609946895241Q1745.3461840594819 524.67047513323 1717.0635372465285 524.67047513323L1717.0635372465285 524.67047513323ZM1685.936525573828 449.18747182693164L1685.936525573828 480.233982607375L1726.4016407483387 447.6042876125443Q1725.8381345025396 437.8905132802016 1717.0635372465285 437.8905132802016L1717.0635372465285 437.8905132802016L1695.3551299678952 437.8905132802016Q1685.936525573828 437.8905132802016 1685.936525573828 449.18747182693164L1685.936525573828 449.18747182693164ZM1823.6467185947745 524.67047513323L1801.9651449468938 524.67047513323Q1773.6556645031878 524.67047513323 1773.6556645031878 496.3609946895241L1773.6556645031878 496.3609946895241L1773.6556645031878 449.18747182693164Q1773.6556645031878 420.90482501397804 1801.9651449468938 420.90482501397804L1801.9651449468938 420.90482501397804L1823.6467185947745 420.90482501397804Q1830.0599563445812 420.90482501397804 1833.0921566195943 423.8296907659818L1833.0921566195943 423.8296907659818L1833.0921566195943 386.93344848153095L1851.017021962149 378.45402116379535L1851.9561990384805 378.45402116379535L1851.9561990384805 496.3609946895241Q1851.9561990384805 524.67047513323 1823.6467185947745 524.67047513323L1823.6467185947745 524.67047513323ZM1801.9651449468938 507.68478686700644L1801.9651449468938 507.68478686700644L1823.6467185947745 507.68478686700644Q1833.0921566195943 507.68478686700644 1833.0921566195943 496.3609946895241L1833.0921566195943 496.3609946895241L1833.0921566195943 449.18747182693164Q1833.0921566195943 437.8905132802016 1823.6467185947745 437.8905132802016L1823.6467185947745 437.8905132802016L1801.9651449468938 437.8905132802016Q1792.5197069220744 437.8905132802016 1792.5197069220744 449.18747182693164L1792.5197069220744 449.18747182693164L1792.5197069220744 496.3609946895241Q1792.5197069220744 507.68478686700644 1801.9651449468938 507.68478686700644Z " fill="#1d1b1b" transform="matrix(0.47247335185699557,0,0,0.4724733518569955,0,85.75503177669945)"/></g></svg>